<svg width="82" height="82" viewBox="0 0 82 82" fill="none" xmlns="http://www.w3.org/2000/svg">
<path d="M37.8648 15.707C37.8648 15.1651 37.8979 14.6936 37.8472 14.2288C37.8274 14.0503 37.6511 13.841 37.4881 13.7331C35.5274 12.4267 34.7607 9.66184 35.805 7.58216C36.966 5.26454 39.7682 4.32604 41.9669 5.51789C44.3264 6.79787 45.2296 9.78962 43.8461 12.0037C43.4562 12.6249 42.7997 13.0766 42.2797 13.6207C42.1564 13.7507 42.0198 13.9292 42.0088 14.0922C41.9735 14.6231 41.9955 15.1563 41.9955 15.6806C42.6697 15.6806 43.346 15.6718 44.0201 15.6806C46.6792 15.7202 49.3515 15.4977 51.982 16.0837C54.7644 16.7028 57.3222 17.8528 59.6001 19.5381C62.0808 21.3711 63.9754 23.7394 65.295 26.535C65.837 27.6828 66.2622 28.8879 66.7711 30.148C67.5311 30.3463 68.4652 30.5754 69.3905 30.8398C73.627 32.0493 76.4073 35.7394 76.4954 40.1433C76.5945 45.0451 73.8936 48.4532 69.6373 49.9579C68.6106 50.3214 67.5355 50.5417 66.4913 50.8546C66.3327 50.903 66.141 51.0705 66.0926 51.2247C65.2268 54.0446 63.6075 56.3908 61.4926 58.3868C59.75 60.0325 57.7364 61.3235 55.4672 62.0967C54.5397 62.414 54.2269 62.9119 53.9295 63.7755C52.9756 66.5337 51.6956 69.1245 49.2061 70.8737C46.4347 72.8212 43.3438 74.0153 39.9577 73.9999C33.5644 73.9734 28.4093 70.1599 26.3583 64.5443C25.8824 63.2445 25.2722 62.5065 23.9151 61.958C19.2071 60.0545 15.8717 56.6354 13.8647 51.9561C13.6709 51.5023 13.4528 51.2379 12.924 51.1343C10.417 50.6409 8.26898 49.4424 6.28843 47.832C3.01029 45.1663 1.95722 39.8349 4.16468 35.865C5.38518 33.6707 7.01544 31.97 9.46303 31.2033C10.5624 30.8596 11.6881 30.6041 12.7963 30.2824C12.9505 30.2384 13.1443 30.0555 13.173 29.9057C13.7127 27.2202 15.05 24.9202 16.7441 22.8405C20.2756 18.5027 25.0012 16.3547 30.4625 15.7687C32.3021 15.5704 34.1791 15.718 36.0407 15.707C36.5981 15.7048 37.1554 15.707 37.867 15.707H37.8648ZM39.6581 20.285C39.6581 20.285 39.6581 20.2695 39.6581 20.2607C37.3845 20.2607 35.1088 20.2321 32.8352 20.2718C31.3526 20.2982 29.8281 20.2277 28.3939 20.5361C21.6239 21.9923 17.4425 27.3171 16.7243 34.173C16.4071 37.2022 16.5811 40.2865 16.6009 43.3443C16.6141 45.2258 16.8829 47.0763 17.4161 48.8982C19.1234 54.7275 25.1378 59.3253 31.2248 59.3495C36.413 59.3694 41.6034 59.3628 46.7916 59.3385C48.7082 59.3297 50.6227 59.3165 52.4799 58.6468C54.846 57.7942 57.0226 56.6596 58.7564 54.8068C61.5807 51.7931 62.7792 48.114 62.9157 44.0758C63.0149 41.1435 62.9202 38.2046 62.9202 35.2701C62.9202 32.0515 62.0103 29.1258 60.1245 26.5086C57.2076 22.4682 53.3016 20.307 48.2764 20.2872C45.4037 20.2762 42.5287 20.2872 39.6559 20.2872L39.6581 20.285ZM31.1323 63.9451C32.0003 67.0801 35.7873 69.6334 40.2551 69.7325C44.6568 69.8295 48.1024 66.7893 49.0299 63.9451H31.1323ZM12.2014 34.6269C9.2207 35.6425 7.07492 37.8323 7.50892 41.1787C7.8526 43.8246 10.1592 46.4683 12.2014 46.433V34.6269ZM67.4342 46.3956C71.2455 44.9504 72.3757 42.9742 72.032 39.4978C71.8117 37.2683 69.5624 35.3649 67.4342 34.7458V46.3956ZM41.3853 9.75877C41.4161 8.85993 40.7927 8.1946 39.885 8.15936C39.1338 8.13072 38.3407 8.80045 38.2988 9.50102C38.2525 10.2589 39.0633 11.1247 39.8343 11.1445C40.7376 11.1687 41.3545 10.618 41.3853 9.76098V9.75877Z" fill="black"/>
<path d="M30.9592 42.4209C30.9328 44.0225 30.5539 44.679 29.5669 44.7165C29.2475 44.7297 28.8619 44.5909 28.6086 44.3905C28.3398 44.1768 28.1261 43.8331 28.0094 43.5026C27.897 43.1854 27.9433 42.8131 27.9256 42.5465C27.1568 42.2733 26.443 42.0332 25.7402 41.76C25.4957 41.6653 25.2599 41.5111 25.0595 41.3392C23.3191 39.8522 23.9007 38.7925 25.3459 37.5588C25.4714 37.453 25.7931 37.4685 25.9671 37.55C26.3967 37.7482 26.8109 37.9906 27.1964 38.2616C28.071 38.874 29.0426 39.037 30.0802 38.9775C30.5451 38.9511 30.8821 38.7749 30.9592 38.2792C31.0342 37.7879 30.8447 37.3759 30.3754 37.2415C29.6859 37.0433 28.9677 36.9529 28.2627 36.8009C27.1193 36.5542 25.9451 36.4044 25.1278 35.3888C23.1318 32.9081 23.8324 29.4802 26.6699 28.035C27.0114 27.8609 27.4035 27.7838 27.8618 27.634C27.778 26.5567 27.7736 25.3208 29.362 25.3274C30.4129 25.3318 30.8799 26.213 30.8205 27.7089C31.9154 27.9006 32.9839 28.2399 33.7527 29.0991C34.1052 29.4934 34.4026 30.0111 34.5238 30.52C34.6648 31.1104 34.3762 31.6568 33.8166 31.9806C33.202 32.3375 32.5565 32.5204 31.8845 32.1327C31.6003 31.9674 31.3404 31.7581 31.0716 31.5643C30.2587 30.9783 29.3466 30.9628 28.4742 31.2911C28.1459 31.4145 27.8177 31.8683 27.7296 32.2296C27.6128 32.7165 28.0204 32.9918 28.494 33.1064C29.4546 33.3377 30.4129 33.5889 31.3756 33.8136C34.9269 34.6397 35.5967 38.2043 33.9025 40.6497C33.1865 41.6807 32.2745 42.3945 30.9637 42.4165L30.9592 42.4209Z" fill="black"/>
<path d="M52.117 27.647C52.8176 27.8937 53.4961 28.0457 54.0799 28.3674C54.5866 28.6472 55.0537 29.0658 55.4216 29.5196C56.0803 30.3281 56.023 30.9494 55.3621 31.7447C54.8356 32.3792 53.8662 32.6083 53.1238 32.2448C52.8506 32.1104 52.5774 31.9363 52.3637 31.7226C51.6588 31.0177 50.8282 30.9758 49.9514 31.238C49.4778 31.379 49.079 31.672 49.0834 32.236C49.0878 32.7757 49.3984 33.1194 49.9206 33.2472C50.7401 33.4498 51.5618 33.6371 52.3836 33.8332C54.0381 34.2253 55.4216 34.9655 55.871 36.7654C56.3777 38.8033 55.7102 40.4842 54.1064 41.7576C53.6019 42.1585 52.8991 42.3105 52.1831 42.6212C52.1919 42.6939 52.2161 42.9076 52.2426 43.1235C52.3483 44.0333 51.8284 44.7052 50.978 44.7537C49.9845 44.811 49.3103 44.2338 49.2971 43.3107C49.2839 42.4405 49.2839 42.4339 48.2815 42.2775C47.3782 42.1343 46.5741 41.7818 45.9352 41.1275C44.8579 40.0238 45.0871 38.6336 46.4309 37.8692C46.9839 37.5541 47.4553 37.6819 47.9092 38.0498C48.8477 38.8077 49.8941 39.1976 51.1234 39.061C51.7645 38.9905 52.2206 38.6931 52.2624 38.215C52.3065 37.7348 51.9452 37.303 51.3129 37.1774C50.5044 37.0188 49.6848 36.9285 48.8763 36.7742C46.3428 36.2874 45.0166 34.298 45.3933 31.5244C45.6643 29.5328 46.9971 28.4908 48.786 27.929C49.1649 27.81 49.3588 27.7483 49.231 27.2813C49.0658 26.6732 49.1517 26.096 49.7421 25.6907C50.2775 25.3228 50.793 25.3338 51.368 25.6092C52.0113 25.9154 52.1963 26.4243 52.1589 27.0742C52.1479 27.2769 52.128 27.4796 52.1148 27.647H52.117Z" fill="black"/>
<path d="M40.0587 53.1625C36.948 53.1625 34.4034 51.9332 32.4053 49.5848C32.0682 49.1882 31.7906 48.6926 31.6342 48.1947C31.3478 47.2892 31.7884 46.4058 32.6278 45.9586C33.4693 45.5113 34.095 45.6523 34.8176 46.4565C34.9278 46.5798 35.0357 46.7054 35.1326 46.8376C36.8951 49.2764 40.1336 49.902 42.7794 48.5626C43.6629 48.1154 44.4604 47.3311 45.0508 46.5203C45.7558 45.551 46.767 45.6171 47.4918 46.0136C48.2783 46.441 48.6109 47.4324 48.2034 48.329C47.4169 50.0562 46.0488 51.2305 44.3965 52.0809C43.0394 52.7814 41.5876 53.1559 40.0609 53.1625H40.0587Z" fill="black"/>
<path d="M56.3595 49.962C54.7777 49.9378 53.6321 48.9046 53.6387 47.51C53.6453 46.1485 54.8548 45.0823 56.3418 45.1263C57.5932 45.1616 58.7608 46.4041 58.7344 47.6708C58.7079 48.9178 57.6042 49.9818 56.3595 49.962Z" fill="black"/>
<path d="M23.6684 50.136C22.3421 50.1757 21.1877 49.1248 21.1503 47.8426C21.1128 46.5803 22.3289 45.3576 23.6485 45.3312C24.88 45.3069 26.171 46.5186 26.2085 47.7303C26.2503 49.0587 25.162 50.0898 23.6684 50.1338V50.136Z" fill="black"/>
</svg>
